<svg width="647" height="643" viewBox="0 0 647 643" fill="none" xmlns="http://www.w3.org/2000/svg">
<path d="M684.138 488.131C672.446 482.285 652.96 487.157 651.985 490.08C650.037 494.951 632.499 525.155 627.627 532.949C623.73 538.795 611.064 551.461 587.681 553.41C564.297 556.333 508.761 556.333 508.761 556.333C508.761 556.333 599.372 508.591 641.268 420.903C692.906 311.78 663.677 186.094 592.552 99.3799C555.528 53.5872 513.633 24.3578 461.02 8.76882C425.945 2.92294 388.921 0 351.897 0C314.873 0 277.849 2.92294 242.774 7.79451C188.212 24.3578 146.317 54.5615 110.267 98.4056C39.1423 184.145 7.96428 308.857 62.5258 420.903C62.5258 420.903 110.267 510.54 191.135 556.333C191.135 556.333 128.779 554.384 117.087 553.41C104.421 551.461 83.9607 544.641 75.1919 531.975C69.346 522.232 52.7827 496.9 47.9111 489.105C47.9111 489.105 34.2707 480.336 16.7331 488.131C2.11839 493.977 -0.804554 509.566 0.169759 511.514L15.7588 551.461C94.6782 603.1 198.93 636.227 315.847 642.072C317.796 640.124 319.744 636.227 319.744 631.355C319.744 614.792 319.744 566.076 319.744 566.076C319.744 566.076 224.262 524.18 190.161 412.134C157.034 303.986 168.726 210.452 209.647 140.301C245.697 76.9707 295.387 57.4845 351.897 57.4845C421.073 57.4845 460.046 89.6368 493.172 140.301C527.273 192.914 553.58 308.857 512.659 412.134C467.84 524.18 428.868 545.615 385.998 566.076C385.998 571.922 385.998 631.355 385.998 631.355C385.998 631.355 385.023 637.201 388.921 642.072C503.89 636.227 609.116 604.074 687.061 553.41L703.624 511.514C702.65 509.566 695.829 493.977 684.138 488.131Z" fill="#3B85C6" fill-opacity="0.06"/>
</svg>
